<svg xmlns="http://www.w3.org/2000/svg" viewBox="0 0 24 24" fill="none" stroke="currentColor" stroke-width="1.5" stroke-linecap="round" stroke-linejoin="round"><path d="M21 7.353V16.647C21 16.865 20.882 17.066 20.691 17.172L12.291 21.838C12.11 21.939 11.89 21.939 11.709 21.838L3.309 17.172C3.118 17.066 3 16.865 3 16.647V7.353C3 7.135 3.118 6.934 3.309 6.829L11.709 2.162C11.89 2.061 12.11 2.061 12.291 2.162L20.691 6.829C20.882 6.934 21 7.135 21 7.353Z"/><path d="M3.528 7.294L11.709 11.838C11.89 11.939 12.11 11.939 12.291 11.838L20.5 7.278"/><path d="M12 21V12"/></svg>
